<svg xmlns="http://www.w3.org/2000/svg" version="1.1" style="display: none;">
    <symbol id="man-user" viewBox="0 0 390 512">
        <path d="M179.236 0.295748C151.987 3.26175 135.133 10.2627 120.638 24.6377C101.342 43.7747 93.7328 67.2538 92.1008 112.7C90.9768 143.998 95.2458 166.686 106.488 189.165C131.178 238.531 179.242 260.968 224.844 244.415C257.665 232.501 284.437 199.367 293.715 159.176C297.132 144.375 298.077 132.402 297.371 112.866C295.722 67.2197 288.143 43.7877 268.834 24.6377C256.535 12.4407 242.697 5.63775 223.008 2.11175C214.401 0.569748 187.117 -0.562252 179.236 0.295748ZM123.236 262.642C75.0048 273.038 49.8998 284.18 31.8198 303.214C19.4718 316.213 11.8648 332.096 7.16283 354.696C3.60383 371.804 1.89483 389.743 0.66483 422.905C-0.60817 457.209 -1.13617 454.714 9.53683 464.894C36.6298 490.736 89.7738 506.713 161.736 510.651C260.963 516.082 344.674 498.527 379.935 464.894C390.521 454.796 389.997 457.25 388.794 423.39C387.773 394.664 386.681 379.758 384.638 366.665C374.798 303.61 346.222 278.965 263.393 262.095L251.475 259.668L247.514 263.246C239.115 270.835 228.47 275.928 214.236 279.167C204.916 281.289 184.556 281.289 175.236 279.167C160.947 275.915 147.383 269.248 140.812 262.248C137.942 259.191 139.397 259.158 123.236 262.642Z"/>
    </symbol>

    <symbol id="logout" viewBox="0 0 512.005 512">
        <g><path d="M320 277.336c-11.797 0-21.332 9.559-21.332 21.332v85.336c0 11.754-9.559 21.332-21.336 21.332h-64v-320c0-18.219-11.605-34.496-29.055-40.555l-6.316-2.113h99.371c11.777 0 21.336 9.578 21.336 21.336v64c0 11.773 9.535 21.332 21.332 21.332s21.332-9.559 21.332-21.332v-64c0-35.285-28.715-64-64-64H48c-.812 0-1.492.363-2.281.469-1.028-.086-2.008-.47-3.051-.47C19.137.004 0 19.138 0 42.669v384c0 18.219 11.605 34.496 29.055 40.555L157.44 510.02c4.352 1.343 8.68 1.984 13.227 1.984 23.531 0 42.664-19.137 42.664-42.668v-21.332h64c35.285 0 64-28.715 64-64v-85.336c0-11.773-9.535-21.332-21.332-21.332zm0 0" ></path><path d="m505.75 198.254-85.336-85.332a21.33 21.33 0 0 0-23.25-4.633C389.207 111.598 384 119.383 384 128.004v64h-85.332c-11.777 0-21.336 9.555-21.336 21.332 0 11.777 9.559 21.332 21.336 21.332H384v64c0 8.621 5.207 16.406 13.164 19.715a21.335 21.335 0 0 0 23.25-4.63l85.336-85.335c8.34-8.34 8.34-21.824 0-30.164zm0 0" ></path></g>
    </symbol>

    <symbol id="basket" viewBox="0 0 512 512">
        <g><path d="M485.7 198.5c-10.7-13.4-25.3-20.8-41.1-20.8h-36.1C405.1 85.1 338 11 256 11S106.9 85.1 103.5 177.7H67.4c-15.8 0-30.4 7.4-41.1 20.8-13.5 16.8-18.4 40.2-13.3 62.7L56.3 452c6.5 28.8 28.9 49 54.4 49h290.5c25.5 0 47.9-20.1 54.4-49L499 261.2c5.1-22.5.2-45.9-13.3-62.7zM256 51.8c59.6 0 108.4 55.8 111.6 125.9H144.4c3.2-70 52-125.9 111.6-125.9zm203.2 200.3L415.9 443c-2.2 9.8-8.5 17.2-14.6 17.2H110.7c-6.1 0-12.4-7.4-14.6-17.2L52.8 252.1c-2.3-10.1-3.7-33.6 14.6-33.6h377.2c19.7 0 16.9 23.5 14.6 33.6z" ></path><path d="M154.7 259.1c-11.3 0-20.4 9.1-20.4 20.4V407c0 11.3 9.1 20.4 20.4 20.4 11.3 0 20.4-9.1 20.4-20.4V279.5c.1-11.2-9.1-20.4-20.4-20.4zM253.6 259.1c-11.3 0-20.4 9.1-20.4 20.4V407c0 11.3 9.1 20.4 20.4 20.4 11.3 0 20.4-9.1 20.4-20.4V279.5c0-11.2-9.2-20.4-20.4-20.4zM352.4 259.1c-11.3 0-20.4 9.1-20.4 20.4V407c0 11.3 9.1 20.4 20.4 20.4 11.3 0 20.4-9.1 20.4-20.4V279.5c0-11.2-9.1-20.4-20.4-20.4z" ></path></g>
    </symbol>


</svg>